<?xml version="1.0" encoding="UTF-8" standalone="no"?>
<svg
   xmlns:dc="http://purl.org/dc/elements/1.1/"
   xmlns:cc="http://creativecommons.org/ns#"
   xmlns:rdf="http://www.w3.org/1999/02/22-rdf-syntax-ns#"
   xmlns:svg="http://www.w3.org/2000/svg"
   xmlns="http://www.w3.org/2000/svg"
   xmlns:sodipodi="http://sodipodi.sourceforge.net/DTD/sodipodi-0.dtd"
   xmlns:inkscape="http://www.inkscape.org/namespaces/inkscape"
   version="1.1"
   id="svg833"
   xml:space="preserve"
   width="793.70667"
   height="151.34666"
   viewBox="0 0 793.70667 151.34666"
   sodipodi:docname="ucl-banner-a4.svg"
   inkscape:version="1.0 (4035a4fb49, 2020-05-01)"><title
     id="title869">UCL Banner A4</title><metadata
     id="metadata839"><rdf:RDF><cc:Work
         rdf:about=""><dc:format>image/svg+xml</dc:format><dc:type
           rdf:resource="http://purl.org/dc/dcmitype/StillImage" /><dc:title>UCL Banner A4</dc:title></cc:Work></rdf:RDF></metadata><defs
     id="defs837" /><sodipodi:namedview
     inkscape:document-rotation="0"
     pagecolor="#ffffff"
     bordercolor="#666666"
     borderopacity="1"
     objecttolerance="10"
     gridtolerance="10"
     guidetolerance="10"
     inkscape:pageopacity="0"
     inkscape:pageshadow="2"
     inkscape:window-width="1920"
     inkscape:window-height="1027"
     id="namedview835"
     showgrid="false"
     inkscape:zoom="1.1902315"
     inkscape:cx="380.29315"
     inkscape:cy="128.80452"
     inkscape:window-x="-8"
     inkscape:window-y="22"
     inkscape:window-maximized="1"
     inkscape:current-layer="g841" /><g
     id="g841"
     inkscape:groupmode="layer"
     inkscape:label="ink_ext_XXXXXX"
     transform="matrix(1.3333333,0,0,-1.3333333,0,151.34667)"
     style="display:inline"><g
       style="fill:#4d4d4d"
       id="g843"
       transform="scale(0.1)"><path
         d="M 0,1135.12 V 0 h 3864.16 c -8.52,6.03906 -16.45,12.4414 -23.52,19.1992 -63.1,61.0117 -63.98,131.8828 -65.78,198.2888 V 594.34 h 201.86 V 198.633 c 0,-26.922 0.92,-54.727 23.44,-76.254 16.21,-17.059 40.56,-23.3282 63.98,-23.3282 31.54,0 52.29,11.6792 64,22.4182 23.42,22.437 24.32,50.242 24.32,77.164 V 594.34 h 202.77 V 256.965 c 0,-72.656 0,-166.8869 -74.8,-237.7658 C 4273.28,12.5 4265.39,6.10938 4256.89,0 h 302.29 c -88.98,63.8516 -130.8,170.543 -130.8,274.027 0,170.477 114.47,343.657 329.84,343.657 96.43,0 188.34,-34.11 255.04,-102.321 27.05,-27.804 39.67,-49.328 53.17,-74.441 l -168.5,-83.473 c -16.25,37.711 -46.88,104.996 -131.6,104.996 -44.16,0 -72.09,-20.644 -85.61,-34.105 -47.77,-45.742 -47.77,-117.527 -47.77,-142.688 0,-94.183 35.18,-183.023 134.3,-183.023 93.73,0 121.66,82.559 128.88,104.082 L 5067.34,124.16 C 5051.11,93.6719 5035.8,64.9492 5005.18,34.4492 4992.03,21.5703 4977.79,10.1406 4962.75,0 h 185.14 v 595.246 h 200.94 V 127.41 h 260.78 V 0 h 343.14 V 1135.12 H 0"
         style="fill:#4d4d4d;fill-opacity:1;fill-rule:nonzero;stroke:none"
         id="path845" /><path
         d="m 3672.62,452.16 c -0.39,0.086 -108.75,23.367 -108.75,23.367 0,0 -108.5,-23.316 -108.71,-23.367 -0.59,-0.117 -0.39,-0.617 -0.39,-0.617 l 1.5,-5.563 0.31,0.008 -0.04,-0.008 c 0,0 1.68,0.211 2.66,-1.343 l 1.62,-8.934 c 0,0 0.04,-0.625 0.68,-0.625 0.67,0 3.93,0 3.93,0 h 196.89 c 0,0 3.42,0 3.97,0 0.55,0 0.6,0.457 0.6,0.457 l 1.63,8.938 c 0.93,1.75 2.75,1.507 2.75,1.507 l -0.04,0.008 0.27,-0.008 1.51,5.563 c 0,0 0.21,0.5 -0.39,0.617"
         style="fill:#4d4d4d;fill-opacity:1;fill-rule:nonzero;stroke:none"
         id="path847" /><path
         d="m 3661.25,432.199 c 0.12,0 0.23,0.094 0.23,0.246 v 2.774 c 0,0.14 -0.11,0.023 -0.23,0.023 h -16.52 c -0.12,0 -0.26,0.117 -0.26,-0.023 v -2.774 c 0,-0.152 0.14,-0.246 0.26,-0.246 l 0.7,-0.008 c 0.33,0 0.35,-0.332 0.35,-0.656 0,-0.414 0.18,-2.562 1.68,-3.859 0.22,-0.188 0.16,-0.715 -0.31,-0.715 -0.04,0 -0.47,0 -0.51,0 -0.37,0 -0.39,-0.254 -0.27,-0.453 0.13,-0.25 0.17,-0.981 0.17,-1.324 0,-0.348 0,-0.961 0,-1.207 0,-0.219 0.02,-0.395 0.24,-0.395 0.02,0 0.23,0 0.25,0 0,0 0.16,0.02 0.16,-0.176 0,-0.16 0,-0.238 0,-0.238 v -60.762 c -0.18,-0.187 -0.82,-0.84 -0.88,-0.883 -0.04,-0.054 -0.1,-0.132 -0.1,-0.226 v -1.031 c 0,-0.071 -0.02,-0.176 -0.08,-0.219 -0.04,-0.047 -0.13,-0.074 -0.23,-0.074 h -0.76 c -0.14,0 -0.26,-0.121 -0.26,-0.246 0,0 0,-1.696 0,-1.758 h 16.19 c 0,0.062 0,1.758 0,1.758 0,0.125 -0.11,0.246 -0.23,0.246 h -0.76 c -0.1,0 -0.18,0.027 -0.24,0.074 -0.04,0.043 -0.07,0.148 -0.07,0.219 v 1.031 c 0,0.078 -0.02,0.141 -0.1,0.215 -0.1,0.082 -0.63,0.625 -0.88,0.894 v 60.762 c 0,0 0,0.078 0,0.238 0,0.196 0.16,0.176 0.16,0.176 0.01,0 0.21,0 0.23,0 0.21,0 0.25,0.176 0.25,0.395 0,0.246 0,0.859 0,1.207 0,0.343 0.06,1.074 0.18,1.324 0.14,0.199 0.1,0.453 -0.29,0.453 -0.02,0 -0.47,0 -0.49,0 -0.47,0 -0.53,0.531 -0.33,0.715 1.52,1.238 1.68,3.398 1.68,3.812 0,0.371 -0.02,0.703 0.39,0.703 l 0.68,0.008"
         style="fill:#4d4d4d;fill-opacity:1;fill-rule:nonzero;stroke:none"
         id="path849" /><path
         d="m 3625.63,432.199 c 0.11,0 0.23,0.094 0.23,0.246 v 2.774 c 0,0.14 -0.12,0.023 -0.23,0.023 h -16.55 c -0.13,0 -0.23,0.117 -0.23,-0.023 v -2.774 c 0,-0.152 0.1,-0.246 0.23,-0.246 l 0.72,-0.008 c 0.32,0 0.34,-0.332 0.34,-0.656 0,-0.414 0.19,-2.562 1.68,-3.859 0.21,-0.188 0.13,-0.715 -0.3,-0.715 -0.04,0 -0.48,0 -0.5,0 -0.39,0 -0.43,-0.254 -0.32,-0.453 0.16,-0.25 0.18,-0.981 0.18,-1.324 0,-0.348 0,-0.961 0,-1.207 0,-0.219 0.04,-0.395 0.25,-0.395 h 0.24 c 0,0 0.17,0.02 0.17,-0.176 0,-0.16 0.02,-0.238 0.02,-0.238 v -60.762 c -0.19,-0.187 -0.86,-0.84 -0.9,-0.883 -0.05,-0.054 -0.09,-0.132 -0.09,-0.226 v -1.031 c 0,-0.071 0,-0.176 -0.08,-0.219 -0.04,-0.047 -0.12,-0.074 -0.22,-0.074 h -0.78 c -0.11,0 -0.21,-0.121 -0.21,-0.246 0,0 0,-1.696 0,-1.758 h 16.15 c 0,0.062 0,1.758 0,1.758 0,0.125 -0.12,0.246 -0.23,0.246 h -0.77 c -0.09,0 -0.19,0.027 -0.23,0.074 -0.06,0.043 -0.08,0.148 -0.08,0.219 v 1.031 c 0,0.078 -0.02,0.141 -0.1,0.215 -0.07,0.082 -0.6,0.625 -0.88,0.894 v 60.762 c 0,0 0,0.078 0,0.238 0,0.196 0.18,0.176 0.18,0.176 0.02,0 0.2,0 0.22,0 0.21,0 0.23,0.176 0.23,0.395 0,0.246 0,0.859 0,1.207 0,0.343 0.08,1.074 0.21,1.324 0.1,0.199 0.06,0.453 -0.31,0.453 -0.02,0 -0.45,0 -0.49,0 -0.47,0 -0.52,0.531 -0.31,0.715 1.52,1.238 1.68,3.398 1.68,3.812 0,0.371 -0.02,0.703 0.37,0.703 l 0.71,0.008"
         style="fill:#4d4d4d;fill-opacity:1;fill-rule:nonzero;stroke:none"
         id="path851" /><path
         d="m 3589.98,432.199 c 0.14,0 0.22,0.094 0.22,0.246 v 2.774 c 0,0.14 -0.08,0.023 -0.22,0.023 h -16.54 c -0.14,0 -0.24,0.117 -0.24,-0.023 v -2.774 c 0,-0.152 0.1,-0.246 0.24,-0.246 l 0.72,-0.008 c 0.31,0 0.33,-0.332 0.33,-0.656 0,-0.414 0.2,-2.562 1.7,-3.859 0.2,-0.188 0.12,-0.715 -0.31,-0.715 -0.04,0 -0.49,0 -0.51,0 -0.39,0 -0.41,-0.254 -0.29,-0.453 0.13,-0.25 0.17,-0.981 0.17,-1.324 0,-0.348 0,-0.961 0,-1.207 0,-0.219 0.02,-0.395 0.22,-0.395 0.02,0 0.25,0 0.27,0 0,0 0.18,0.02 0.18,-0.176 0,-0.16 0,-0.238 0,-0.238 v -60.762 c -0.18,-0.187 -0.84,-0.84 -0.9,-0.883 -0.06,-0.054 -0.1,-0.132 -0.1,-0.226 v -1.031 c 0,-0.071 -0.02,-0.176 -0.06,-0.219 -0.06,-0.047 -0.15,-0.074 -0.23,-0.074 h -0.76 c -0.12,0 -0.24,-0.121 -0.24,-0.246 0,0 0,-1.696 0,-1.758 h 16.16 c 0,0.062 0,1.758 0,1.758 0,0.125 -0.12,0.246 -0.24,0.246 h -0.76 c -0.1,0 -0.2,0.027 -0.24,0.074 -0.03,0.043 -0.07,0.148 -0.07,0.219 v 1.031 c 0,0.078 -0.02,0.141 -0.08,0.215 -0.1,0.082 -0.61,0.625 -0.9,0.894 v 60.762 c 0,0 0,0.078 0,0.238 0,0.196 0.18,0.176 0.18,0.176 0.02,0 0.19,0 0.19,0 0.26,0 0.27,0.176 0.27,0.395 0,0.246 0,0.859 0,1.207 0,0.343 0.06,1.074 0.2,1.324 0.1,0.199 0.1,0.453 -0.29,0.453 -0.02,0 -0.47,0 -0.51,0 -0.47,0 -0.53,0.531 -0.29,0.715 1.5,1.238 1.64,3.398 1.64,3.812 0,0.371 0,0.703 0.39,0.703 l 0.7,0.008"
         style="fill:#4d4d4d;fill-opacity:1;fill-rule:nonzero;stroke:none"
         id="path853" /><path
         d="m 3554.34,432.199 c 0.13,0 0.23,0.094 0.23,0.246 v 2.774 c 0,0.14 -0.1,0.023 -0.23,0.023 h -16.55 c -0.13,0 -0.21,0.117 -0.21,-0.023 v -2.774 c 0,-0.152 0.08,-0.246 0.21,-0.246 l 0.71,-0.008 c 0.33,0 0.35,-0.332 0.35,-0.656 0,-0.414 0.19,-2.562 1.7,-3.859 0.21,-0.188 0.11,-0.715 -0.32,-0.715 -0.03,0 -0.48,0 -0.5,0 -0.39,0 -0.41,-0.254 -0.3,-0.453 0.14,-0.25 0.18,-0.981 0.18,-1.324 0,-0.348 0,-0.961 0,-1.207 0,-0.219 0.02,-0.395 0.25,-0.395 0,0 0.22,0 0.24,0 0,0 0.17,0.02 0.17,-0.176 0,-0.16 0,-0.238 0,-0.238 v -60.762 c -0.17,-0.187 -0.84,-0.84 -0.89,-0.883 -0.04,-0.054 -0.08,-0.132 -0.08,-0.226 v -1.031 c 0,-0.071 -0.02,-0.176 -0.08,-0.219 -0.06,-0.047 -0.16,-0.074 -0.24,-0.074 h -0.76 c -0.13,0 -0.23,-0.121 -0.23,-0.246 0,0 0,-1.696 0,-1.758 h 16.15 c 0,0.062 0,1.758 0,1.758 0,0.125 -0.1,0.246 -0.23,0.246 h -0.77 c -0.09,0 -0.17,0.027 -0.23,0.074 -0.04,0.043 -0.06,0.148 -0.06,0.219 v 1.031 c 0,0.078 -0.02,0.141 -0.1,0.215 -0.09,0.082 -0.62,0.625 -0.87,0.894 v 60.762 c 0,0 -0.02,0.078 -0.02,0.238 0,0.196 0.17,0.176 0.17,0.176 0.02,0 0.22,0 0.24,0 0.19,0 0.23,0.176 0.23,0.395 0,0.246 0,0.859 0,1.207 0,0.343 0.06,1.074 0.2,1.324 0.11,0.199 0.07,0.453 -0.3,0.453 -0.04,0 -0.47,0 -0.49,0 -0.48,0 -0.54,0.531 -0.33,0.715 1.53,1.238 1.68,3.398 1.68,3.812 0,0.371 -0.02,0.703 0.37,0.703 l 0.71,0.008"
         style="fill:#4d4d4d;fill-opacity:1;fill-rule:nonzero;stroke:none"
         id="path855" /><path
         d="m 3518.69,432.199 c 0.14,0 0.24,0.094 0.24,0.246 v 2.774 c 0,0.14 -0.1,0.023 -0.24,0.023 h -16.52 c -0.14,0 -0.24,0.117 -0.24,-0.023 v -2.774 c 0,-0.152 0.1,-0.246 0.24,-0.246 l 0.68,-0.008 c 0.35,0 0.37,-0.332 0.37,-0.656 0,-0.414 0.2,-2.562 1.7,-3.859 0.2,-0.188 0.12,-0.715 -0.33,-0.715 -0.02,0 -0.49,0 -0.51,0 -0.39,0 -0.41,-0.254 -0.29,-0.453 0.14,-0.25 0.17,-0.981 0.17,-1.324 0,-0.348 0,-0.961 0,-1.207 0,-0.219 0.02,-0.395 0.26,-0.395 0.02,0 0.21,0 0.23,0 0,0 0.18,0.02 0.18,-0.176 0,-0.16 0,-0.238 0,-0.238 v -60.762 c -0.18,-0.187 -0.84,-0.84 -0.88,-0.883 -0.06,-0.054 -0.1,-0.132 -0.1,-0.226 v -1.031 c 0,-0.071 -0.02,-0.176 -0.08,-0.219 -0.03,-0.047 -0.13,-0.074 -0.23,-0.074 h -0.74 c -0.14,0 -0.26,-0.121 -0.26,-0.246 0,0 0,-1.696 0,-1.758 h 16.16 c 0,0.062 0,1.758 0,1.758 0,0.125 -0.1,0.246 -0.22,0.246 h -0.78 c -0.08,0 -0.16,0.027 -0.21,0.074 -0.06,0.043 -0.08,0.148 -0.08,0.219 v 1.031 c 0,0.078 -0.02,0.141 -0.1,0.215 -0.08,0.082 -0.63,0.625 -0.9,0.894 v 60.762 c 0,0 0,0.078 0,0.238 0,0.196 0.18,0.176 0.18,0.176 0.02,0 0.21,0 0.21,0 0.24,0 0.26,0.176 0.26,0.395 0,0.246 0,0.859 0,1.207 0,0.343 0.05,1.074 0.19,1.324 0.14,0.199 0.1,0.453 -0.29,0.453 -0.02,0 -0.47,0 -0.51,0 -0.47,0 -0.53,0.531 -0.31,0.715 1.52,1.238 1.68,3.398 1.68,3.812 0,0.371 -0.02,0.703 0.37,0.703 l 0.7,0.008"
         style="fill:#4d4d4d;fill-opacity:1;fill-rule:nonzero;stroke:none"
         id="path857" /><path
         d="m 3483.05,432.199 c 0.13,0 0.25,0.094 0.25,0.246 v 2.774 c 0,0.14 -0.12,0.023 -0.25,0.023 h -16.53 c -0.13,0 -0.23,0.117 -0.23,-0.023 v -2.774 c 0,-0.152 0.1,-0.246 0.23,-0.246 l 0.71,-0.008 c 0.33,0 0.35,-0.332 0.35,-0.656 0,-0.414 0.19,-2.562 1.7,-3.859 0.19,-0.188 0.11,-0.715 -0.32,-0.715 -0.03,0 -0.48,0 -0.52,0 -0.37,0 -0.39,-0.254 -0.28,-0.453 0.14,-0.25 0.16,-0.981 0.16,-1.324 0,-0.348 0,-0.961 0,-1.207 0,-0.219 0.02,-0.395 0.25,-0.395 h 0.24 c 0,0 0.17,0.02 0.17,-0.176 0,-0.16 0,-0.238 0,-0.238 v -60.762 c -0.17,-0.187 -0.82,-0.84 -0.87,-0.883 -0.06,-0.054 -0.1,-0.132 -0.1,-0.226 v -1.031 c 0,-0.071 -0.02,-0.176 -0.06,-0.219 -0.06,-0.047 -0.16,-0.074 -0.24,-0.074 h -0.76 c -0.13,0 -0.25,-0.121 -0.25,-0.246 0,0 0,-1.696 0,-1.758 h 16.17 c 0,0.062 0,1.758 0,1.758 0,0.125 -0.1,0.246 -0.23,0.246 h -0.78 c -0.08,0 -0.18,0.027 -0.22,0.074 -0.06,0.043 -0.08,0.148 -0.08,0.219 v 1.031 c 0,0.078 -0.02,0.141 -0.08,0.215 -0.09,0.082 -0.64,0.625 -0.89,0.894 v 60.762 c 0,0 0,0.078 0,0.238 0,0.196 0.15,0.176 0.15,0.176 0.02,0 0.22,0 0.22,0 0.23,0 0.27,0.176 0.27,0.395 0,0.246 0,0.859 0,1.207 0,0.343 0.04,1.074 0.2,1.324 0.09,0.199 0.07,0.453 -0.3,0.453 -0.04,0 -0.47,0 -0.5,0 -0.49,0 -0.53,0.531 -0.32,0.715 1.51,1.238 1.66,3.398 1.66,3.812 0,0.371 -0.02,0.703 0.39,0.703 l 0.69,0.008"
         style="fill:#4d4d4d;fill-opacity:1;fill-rule:nonzero;stroke:none"
         id="path859" /><path
         d="m 3614.47,496.555 c 0,0 -1.34,0 -1.7,0 -0.45,0 -0.43,0.371 -0.43,0.371 0,0 0,1.461 0,1.832 0,0.469 -0.46,0.469 -0.46,0.469 0,0 -1.25,0 -1.67,0 -0.46,0 -0.44,0.421 -0.44,0.421 v 1.688 c 0,0 0,0.371 -0.43,0.371 -0.16,0 -0.73,0 -1,0 -0.35,0 -0.72,0.293 -0.74,0.777 -0.06,2.309 0.74,18.614 -7.87,30.414 -6.78,10.137 -16.12,15.286 -21.27,17.68 -0.1,2.199 -3.23,3.035 -4.59,3.508 -0.73,0.242 -1.35,0.531 -1.35,1.172 0,0.035 -0.02,0.719 -0.02,0.75 0,0.683 0.63,0.957 1.56,0.93 0.3,-0.012 0.51,0.242 0.51,0.429 v 1.981 c 0,0.281 -0.25,0.597 -0.66,0.597 -0.69,0 -1.47,0.004 -1.86,0.004 -0.45,0 -0.66,0.406 -0.66,0.656 0,0.399 0,0.219 0,0.989 0,0.582 -0.45,0.91 -0.8,1.082 v 12.168 c 0,0.41 0.31,0.355 0.58,0.355 0.04,0 0.1,0 0.14,0.016 h 0.04 c 0.15,0 0.29,0.14 0.29,0.297 v 1.16 c 0,0.168 -0.14,0.289 -0.29,0.289 h -0.55 c -0.19,0.09 -0.33,0.344 -0.33,0.891 0,0.558 0.17,0.824 0.41,0.871 h 0.47 c 0.15,0 0.29,0.129 0.29,0.289 v 1.183 c 0,0.149 -0.14,0.282 -0.29,0.282 h -0.63 c -0.27,0.039 -0.47,0.156 -0.74,0.371 -2.07,1.64 -4.16,4.004 -4.16,4.355 0,0.192 0,0.207 0,0.442 0,0.246 -0.25,0.742 -0.82,0.742 -0.55,0 -0.47,0.57 -0.18,0.57 0.2,0 0.24,0.055 0.24,0.328 0,0.164 0,0.469 0,0.785 0,0.352 -1.06,1.817 -1.06,1.817 h -0.07 c 0,0 -1.08,-1.465 -1.08,-1.817 0,-0.316 0,-0.621 0,-0.785 0,-0.273 0.08,-0.328 0.26,-0.328 0.29,0 0.37,-0.57 -0.16,-0.57 -0.57,0 -0.82,-0.496 -0.82,-0.742 0,-0.235 -0.02,-0.25 -0.02,-0.442 0,-0.351 -2.09,-2.715 -4.16,-4.355 -0.27,-0.215 -0.47,-0.332 -0.74,-0.371 h -0.63 c -0.15,0 -0.29,-0.133 -0.29,-0.282 v -1.183 c 0,-0.16 0.14,-0.289 0.29,-0.289 h 0.49 c 0.22,-0.047 0.39,-0.313 0.39,-0.871 0,-0.547 -0.14,-0.801 -0.33,-0.891 h -0.55 c -0.15,0 -0.29,-0.121 -0.29,-0.289 v -1.16 c 0,-0.157 0.14,-0.297 0.29,-0.297 h 0.04 c 0.06,-0.016 0.1,-0.016 0.14,-0.016 0.27,0 0.6,0.055 0.6,-0.355 v -12.168 c -0.35,-0.172 -0.82,-0.5 -0.82,-1.082 0,-0.77 0,-0.59 0,-0.989 0,-0.25 -0.21,-0.656 -0.66,-0.656 -0.39,0 -1.19,-0.004 -1.86,-0.004 -0.41,0 -0.68,-0.316 -0.68,-0.597 v -1.981 c 0,-0.187 0.23,-0.441 0.51,-0.429 0.94,0.027 1.58,-0.247 1.58,-0.93 0,-0.031 -0.02,-0.715 -0.02,-0.75 0,-0.641 -0.64,-0.93 -1.35,-1.172 -1.36,-0.473 -4.49,-1.309 -4.57,-3.508 -5.17,-2.394 -14.53,-7.543 -21.27,-17.68 -8.63,-11.8 -7.81,-28.105 -7.89,-30.414 -0.02,-0.484 -0.37,-0.777 -0.74,-0.777 -0.25,0 -0.84,0 -1,0 -0.43,0 -0.43,-0.371 -0.43,-0.371 v -1.688 c 0,0 0.02,-0.421 -0.43,-0.421 -0.43,0 -1.69,0 -1.69,0 0,0 -0.43,0 -0.43,-0.469 0,-0.371 0,-1.832 0,-1.832 0,0 0.02,-0.371 -0.47,-0.371 -0.34,0 -1.7,0 -1.7,0 0,0 -0.47,0 -0.47,-0.477 0,-0.277 0,-1.371 0,-1.973 0,-0.218 0.14,-0.257 0.29,-0.285 0.51,-0.066 1.54,-0.531 1.54,-1.652 0,-1.926 1.18,-2.109 1.65,-2.109 v -7.098 c 0,-1.652 -1.29,-2.305 -2.02,-2.481 -0.15,-0.023 -0.35,-0.195 -0.35,-0.394 0,-0.184 0,-7.305 0,-7.305 l 49.85,10.996 h 0.07 l 49.85,-10.996 c 0,0 0,7.121 0,7.305 0,0.199 -0.22,0.371 -0.37,0.394 -0.73,0.176 -2,0.829 -2,2.481 v 7.098 c 0.47,0 1.65,0.183 1.65,2.109 0,1.121 1.03,1.586 1.52,1.652 0.17,0.028 0.31,0.067 0.31,0.285 0,0.602 0,1.696 0,1.973 0,0.477 -0.49,0.477 -0.49,0.477"
         style="fill:#4d4d4d;fill-opacity:1;fill-rule:nonzero;stroke:none"
         id="path861" /><path
         d="m 3669.61,337.246 v 14.57 h -8.52 v 6.36 H 3466.7 v -6.352 h -8.54 v -14.558 h -8.57 v -14.719 l 228.59,-0.016 v 14.715 h -8.57"
         style="fill:#4d4d4d;fill-opacity:1;fill-rule:nonzero;stroke:none"
         id="path863" /></g><text
       xml:space="preserve"
       style="font-size:12px;line-height:1.05;font-family:HelveticaNeue;-inkscape-font-specification:HelveticaNeue;letter-spacing:0px;word-spacing:0px;stroke-width:0.75"
       x="18.822006"
       y="-83.319443"
       id="text867"
       transform="scale(1,-1)"><tspan
         y="-83.319443"
         x="18.822006"
         id="tspan1415"
         sodipodi:role="line"
         style="font-style:normal;font-variant:normal;font-weight:normal;font-stretch:normal;font-size:12px;font-family:HelveticaNeue;-inkscape-font-specification:'HelveticaNeue weight=101';fill:#ffffff;stroke-width:0.75">Department of Computer Science</tspan></text></g></svg>
